<svg xmlns="http://www.w3.org/2000/svg" width="802.2865" height="1808.168" viewBox="0 0 802.2865 1808.168"><rect x="0" y="0" width="802.2865" height="1808.168" fill="#FFFFFF"/><defs><marker id="arrow-0" viewBox="0 0 10 10" refX="5" refY="5" markerUnits="userSpaceOnUse" markerWidth="8" markerHeight="8" orient="auto"><path d="M 0 0 L 10 5 L 0 10 z" fill="#2F3B4D" stroke="#2F3B4D" stroke-width="1" stroke-dasharray="1,0"/></marker><marker id="arrow-start-0" viewBox="0 0 10 10" refX="4.5" refY="5" markerUnits="userSpaceOnUse" markerWidth="8" markerHeight="8" orient="auto"><path d="M 0 5 L 10 10 L 10 0 z" fill="#2F3B4D" stroke="#2F3B4D" stroke-width="1" stroke-dasharray="1,0"/></marker></defs><rect x="8.00" y="284.00" width="313.89" height="1104.17" rx="10" ry="10" fill="#FFFFDE" stroke="#AAAA33" stroke-width="1" /><text x="164.95" y="312.00" text-anchor="middle" font-family="trebuchet ms,verdana,arial,sans-serif" font-size="16" fill="#333333"><tspan x="164.95" dy="0.00">Source A lane</tspan></text><rect x="371.89" y="284.00" width="308.62" height="1104.17" rx="10" ry="10" fill="#FFFFDE" stroke="#AAAA33" stroke-width="1" /><text x="526.20" y="312.00" text-anchor="middle" font-family="trebuchet ms,verdana,arial,sans-serif" font-size="16" fill="#333333"><tspan x="526.20" dy="0.00">Source B lane</tspan></text><path id="edge-0" class="edgePath" data-edge-id="edge-0" d="M 291.440,134.000 L 291.440,151.500 L 292.537,166.500 L 292.537,184.000" fill="none" stroke="#2F3B4D" stroke-width="2"    stroke-linecap="round" stroke-linejoin="round" /><path id="edge-1" class="edgePath" data-edge-id="edge-1" d="M 167.019,902.000 L 167.019,919.500 L 160.379,966.500 L 160.379,984.000" fill="none" stroke="#2F3B4D" stroke-width="2"    stroke-linecap="round" stroke-linejoin="round" /><path id="edge-2" class="edgePath" data-edge-id="edge-2" d="M 192.379,1128.168 L 192.379,1145.668 L 197.652,1165.368 L 197.652,1182.868" fill="none" stroke="#2F3B4D" stroke-width="2"    stroke-linecap="round" stroke-linejoin="round" /><rect data-edge-id="edge-2" data-label-kind="center" x="154.64" y="1144.16" width="35.88" height="28.40" rx="2" ry="2" fill="rgba(248,250,252, 0.92)" fill-opacity="0.00" stroke="#7B88A8" stroke-opacity="0.00" stroke-width="0.8"/><g class="edgeLabel" data-edge-id="edge-2" data-label-kind="center"><text x="172.58" y="1162.36" text-anchor="middle" font-family="trebuchet ms,verdana,arial,sans-serif" font-size="16" fill="#333333"><tspan x="172.58" dy="0.00">yes</tspan></text></g><path id="edge-3" class="edgePath" data-edge-id="edge-3" d="M 240.379,1080.168 L 240.379,1097.668 L 338.255,1097.668 L 338.255,1282.168 L 224.132,1282.168" fill="none" stroke="#2F3B4D" stroke-width="2"    stroke-linecap="round" stroke-linejoin="round" /><rect data-edge-id="edge-3" data-label-kind="center" x="308.71" y="1126.78" width="27.54" height="28.40" rx="2" ry="2" fill="rgba(248,250,252, 0.92)" fill-opacity="0.00" stroke="#7B88A8" stroke-opacity="0.00" stroke-width="0.8"/><g class="edgeLabel" data-edge-id="edge-3" data-label-kind="center"><text x="322.48" y="1144.98" text-anchor="middle" font-family="trebuchet ms,verdana,arial,sans-serif" font-size="16" fill="#333333"><tspan x="322.48" dy="0.00">no</tspan></text></g><path id="edge-4" class="edgePath" data-edge-id="edge-4" d="M 197.652,1236.868 L 197.652,1254.368 L 192.132,1264.668 L 192.132,1282.168" fill="none" stroke="#2F3B4D" stroke-width="2"    stroke-linecap="round" stroke-linejoin="round" /><path id="edge-5" class="edgePath" data-edge-id="edge-5" d="M 157.600,390.000 L 157.600,407.500 L 166.497,422.500 L 166.497,440.000" fill="none" stroke="#2F3B4D" stroke-width="2"    stroke-linecap="round" stroke-linejoin="round" /><path id="edge-6" class="edgePath" data-edge-id="edge-6" d="M 198.497,518.000 L 198.497,535.500 L 132.360,535.500 L 132.360,720.000 L 186.223,720.000" fill="none" stroke="#2F3B4D" stroke-width="2"    stroke-linecap="round" stroke-linejoin="round" /><path id="edge-7" class="edgePath" data-edge-id="edge-7" d="M 154.223,774.000 L 154.223,791.500 L 167.019,806.500 L 167.019,824.000" fill="none" stroke="#2F3B4D" stroke-width="2"    stroke-linecap="round" stroke-linejoin="round" /><path id="edge-8" class="edgePath" data-edge-id="edge-8" d="M 530.910,902.000 L 530.910,919.500 L 557.522,982.500 L 557.522,1000.000" fill="none" stroke="#2F3B4D" stroke-width="2"    stroke-linecap="round" stroke-linejoin="round" /><path id="edge-9" class="edgePath" data-edge-id="edge-9" d="M 525.522,1112.168 L 525.522,1129.668 L 507.784,1165.368 L 507.784,1182.868" fill="none" stroke="#2F3B4D" stroke-width="2"    stroke-linecap="round" stroke-linejoin="round" /><rect data-edge-id="edge-9" data-label-kind="center" x="470.54" y="1142.96" width="35.88" height="28.40" rx="2" ry="2" fill="rgba(248,250,252, 0.92)" fill-opacity="0.00" stroke="#7B88A8" stroke-opacity="0.00" stroke-width="0.8"/><g class="edgeLabel" data-edge-id="edge-9" data-label-kind="center"><text x="488.48" y="1161.16" text-anchor="middle" font-family="trebuchet ms,verdana,arial,sans-serif" font-size="16" fill="#333333"><tspan x="488.48" dy="0.00">yes</tspan></text></g><path id="edge-10" class="edgePath" data-edge-id="edge-10" d="M 493.522,1112.168 L 493.522,1129.668 L 368.933,1129.668 L 368.933,1282.168 L 484.343,1282.168" fill="none" stroke="#2F3B4D" stroke-width="2"    stroke-linecap="round" stroke-linejoin="round" /><rect data-edge-id="edge-10" data-label-kind="center" x="370.93" y="1170.99" width="27.54" height="28.40" rx="2" ry="2" fill="rgba(248,250,252, 0.92)" fill-opacity="0.00" stroke="#7B88A8" stroke-opacity="0.00" stroke-width="0.8"/><g class="edgeLabel" data-edge-id="edge-10" data-label-kind="center"><text x="384.70" y="1189.19" text-anchor="middle" font-family="trebuchet ms,verdana,arial,sans-serif" font-size="16" fill="#333333"><tspan x="384.70" dy="0.00">no</tspan></text></g><path id="edge-11" class="edgePath" data-edge-id="edge-11" d="M 507.784,1236.868 L 507.784,1254.368 L 532.343,1264.668 L 532.343,1282.168" fill="none" stroke="#2F3B4D" stroke-width="2"    stroke-linecap="round" stroke-linejoin="round" /><path id="edge-12" class="edgePath" data-edge-id="edge-12" d="M 521.492,390.000 L 521.492,407.500 L 501.589,422.500 L 501.589,440.000" fill="none" stroke="#2F3B4D" stroke-width="2"    stroke-linecap="round" stroke-linejoin="round" /><path id="edge-13" class="edgePath" data-edge-id="edge-13" d="M 501.589,518.000 L 501.589,535.500 L 523.363,702.500 L 523.363,720.000" fill="none" stroke="#2F3B4D" stroke-width="2"    stroke-linecap="round" stroke-linejoin="round" /><path id="edge-14" class="edgePath" data-edge-id="edge-14" d="M 523.363,774.000 L 523.363,791.500 L 530.910,806.500 L 530.910,824.000" fill="none" stroke="#2F3B4D" stroke-width="2"    stroke-linecap="round" stroke-linejoin="round" /><path id="edge-15" class="edgePath" data-edge-id="edge-15" d="M 276.537,238.000 L 276.537,255.500 L 173.600,318.500 L 173.600,336.000" fill="none" stroke="#2F3B4D" stroke-width="2"    stroke-linecap="round" stroke-linejoin="round" /><path id="edge-16" class="edgePath" data-edge-id="edge-16" d="M 488.297,227.000 L 505.797,227.000 L 505.797,347.000 L 401.892,347.000" fill="none" stroke="#2F3B4D" stroke-width="2"    stroke-linecap="round" stroke-linejoin="round" /><path id="edge-17" class="edgePath" data-edge-id="edge-17" d="M 230.497,518.000 L 230.497,535.500 L 275.127,550.500 L 275.127,568.000" fill="none" stroke="#2F3B4D" stroke-width="2"    stroke-linecap="round" stroke-linejoin="round" /><path id="edge-18" class="edgePath" data-edge-id="edge-18" d="M 404.389,495.000 L 386.889,495.000 L 457.667,587.000 L 440.167,587.000" fill="none" stroke="#2F3B4D" stroke-width="2"    stroke-linecap="round" stroke-linejoin="round" /><path id="edge-19" class="edgePath" data-edge-id="edge-19" d="M 275.127,670.000 L 275.127,687.500 L 218.223,702.500 L 218.223,720.000" fill="none" stroke="#2F3B4D" stroke-width="2"    stroke-linecap="round" stroke-linejoin="round" /><path id="edge-20" class="edgePath" data-edge-id="edge-20" d="M 440.167,651.000 L 457.667,651.000 L 422.103,731.000 L 439.603,731.000" fill="none" stroke="#2F3B4D" stroke-width="2"    stroke-linecap="round" stroke-linejoin="round" /><path id="edge-21" class="edgePath" data-edge-id="edge-21" d="M 256.132,1336.168 L 256.132,1353.668 L 286.138,1368.668 L 286.138,1386.168" fill="none" stroke="#2F3B4D" stroke-width="2"    stroke-linecap="round" stroke-linejoin="round" /><path id="edge-22" class="edgePath" data-edge-id="edge-22" d="M 416.583,1325.168 L 399.083,1325.168 L 477.638,1421.168 L 460.138,1421.168" fill="none" stroke="#2F3B4D" stroke-width="2"    stroke-linecap="round" stroke-linejoin="round" /><path id="edge-23" class="edgePath" data-edge-id="edge-23" d="M 318.615,1488.168 L 318.615,1538.168" fill="none" stroke="#2F3B4D" stroke-width="2"    stroke-linecap="round" stroke-linejoin="round" /><path id="edge-24" class="edgePath" data-edge-id="edge-24" d="M 319.414,1592.168 L 319.414,1642.168" fill="none" stroke="#2F3B4D" stroke-width="2"    stroke-linecap="round" stroke-linejoin="round" /><path id="edge-25" class="edgePath" data-edge-id="edge-25" d="M 319.736,1696.168 L 319.736,1713.668 L 288.060,1728.668 L 288.060,1746.168" fill="none" stroke="#2F3B4D" stroke-width="2"    stroke-linecap="round" stroke-linejoin="round" /><path id="edge-26" class="edgePath" data-edge-id="edge-26" d="M 661.246,86.000 L 661.246,103.500 L 662.377,166.500 L 662.377,184.000" fill="none" stroke="#2F3B4D" stroke-width="2"    stroke-linecap="round" stroke-linejoin="round" /><path id="edge-27" class="edgePath" data-edge-id="edge-27" d="M 662.377,286.000 L 662.377,1734.668 L 368.060,1734.668 L 368.060,1746.168" fill="none" stroke="#2F3B4D" stroke-width="2"    stroke-linecap="round" stroke-linejoin="round" /><rect x="171.84" y="8.00" width="239.20" height="126.00" rx="3" ry="3" fill="#ECECFF" stroke="#7B88A8" stroke-width="1" stroke-linejoin="round" stroke-linecap="round"/><text x="291.44" y="39.00" text-anchor="middle" font-family="trebuchet ms,verdana,arial,sans-serif" font-size="16" fill="#333333"><tspan x="291.44" dy="0.00">Training call</tspan><tspan x="291.44" dy="24.00">next_triplet_batch /</tspan><tspan x="291.44" dy="24.00">next_pair_batch /</tspan><tspan x="291.44" dy="24.00">next_text_batch</tspan></text><rect x="38.00" y="336.00" width="239.20" height="54.00" rx="3" ry="3" fill="#ECECFF" stroke="#7B88A8" stroke-width="1" stroke-linejoin="round" stroke-linecap="round"/><text x="157.60" y="367.00" text-anchor="middle" font-family="trebuchet ms,verdana,arial,sans-serif" font-size="16" fill="#333333"><tspan x="157.60" dy="0.00">DataSource A refresh</tspan></text><rect x="85.30" y="440.00" width="194.40" height="78.00" rx="3" ry="3" fill="#ECECFF" stroke="#7B88A8" stroke-width="1" stroke-linejoin="round" stroke-linecap="round"/><text x="182.50" y="471.00" text-anchor="middle" font-family="trebuchet ms,verdana,arial,sans-serif" font-size="16" fill="#333333"><tspan x="182.50" dy="0.00">Source A buffer</tspan><tspan x="182.50" dy="24.00">VecDeque</tspan></text><rect x="86.46" y="720.00" width="167.52" height="54.00" rx="3" ry="3" fill="#ECECFF" stroke="#7B88A8" stroke-width="1" stroke-linejoin="round" stroke-linecap="round"/><text x="170.22" y="751.00" text-anchor="middle" font-family="trebuchet ms,verdana,arial,sans-serif" font-size="16" fill="#333333"><tspan x="170.22" dy="0.00">Drain pick A</tspan></text><rect x="47.42" y="824.00" width="239.20" height="78.00" rx="3" ry="3" fill="#ECECFF" stroke="#7B88A8" stroke-width="1" stroke-linejoin="round" stroke-linecap="round"/><text x="167.02" y="855.00" text-anchor="middle" font-family="trebuchet ms,verdana,arial,sans-serif" font-size="16" fill="#333333"><tspan x="167.02" dy="0.00">Source A RecordCache</tspan><tspan x="167.02" dy="24.00">LRU by record_id</tspan></text><polygon points="192.38,952.00 280.46,1040.08 192.38,1128.17 104.29,1040.08" fill="#ECECFF" stroke="#7B88A8" stroke-width="1" stroke-linejoin="round" stroke-linecap="round"/><text x="192.38" y="1044.08" text-anchor="middle" font-family="trebuchet ms,verdana,arial,sans-serif" font-size="16" fill="#333333"><tspan x="192.38" dy="0.00">A cache &gt; max?</tspan></text><rect x="104.93" y="1182.87" width="185.44" height="54.00" rx="3" ry="3" fill="#ECECFF" stroke="#7B88A8" stroke-width="1" stroke-linejoin="round" stroke-linecap="round"/><text x="197.65" y="1213.87" text-anchor="middle" font-family="trebuchet ms,verdana,arial,sans-serif" font-size="16" fill="#333333"><tspan x="197.65" dy="0.00">Evict oldest A</tspan></text><rect x="124.37" y="1282.17" width="167.52" height="54.00" rx="3" ry="3" fill="#ECECFF" stroke="#7B88A8" stroke-width="1" stroke-linejoin="round" stroke-linecap="round"/><text x="208.13" y="1313.17" text-anchor="middle" font-family="trebuchet ms,verdana,arial,sans-serif" font-size="16" fill="#333333"><tspan x="208.13" dy="0.00">Keep A cache</tspan></text><rect x="96.78" y="184.00" width="391.52" height="54.00" rx="3" ry="3" fill="#ECECFF" stroke="#7B88A8" stroke-width="1" stroke-linejoin="round" stroke-linecap="round"/><text x="292.54" y="215.00" text-anchor="middle" font-family="trebuchet ms,verdana,arial,sans-serif" font-size="16" fill="#333333"><tspan x="292.54" dy="0.00">IngestionManager.refresh_all_internal</tspan></text><rect x="401.89" y="336.00" width="239.20" height="54.00" rx="3" ry="3" fill="#ECECFF" stroke="#7B88A8" stroke-width="1" stroke-linejoin="round" stroke-linecap="round"/><text x="521.49" y="367.00" text-anchor="middle" font-family="trebuchet ms,verdana,arial,sans-serif" font-size="16" fill="#333333"><tspan x="521.49" dy="0.00">DataSource B refresh</tspan></text><rect x="404.39" y="440.00" width="194.40" height="78.00" rx="3" ry="3" fill="#ECECFF" stroke="#7B88A8" stroke-width="1" stroke-linejoin="round" stroke-linecap="round"/><text x="501.59" y="471.00" text-anchor="middle" font-family="trebuchet ms,verdana,arial,sans-serif" font-size="16" fill="#333333"><tspan x="501.59" dy="0.00">Source B buffer</tspan><tspan x="501.59" dy="24.00">VecDeque</tspan></text><rect x="439.60" y="720.00" width="167.52" height="54.00" rx="3" ry="3" fill="#ECECFF" stroke="#7B88A8" stroke-width="1" stroke-linejoin="round" stroke-linecap="round"/><text x="523.36" y="751.00" text-anchor="middle" font-family="trebuchet ms,verdana,arial,sans-serif" font-size="16" fill="#333333"><tspan x="523.36" dy="0.00">Drain pick B</tspan></text><rect x="411.31" y="824.00" width="239.20" height="78.00" rx="3" ry="3" fill="#ECECFF" stroke="#7B88A8" stroke-width="1" stroke-linejoin="round" stroke-linecap="round"/><text x="530.91" y="855.00" text-anchor="middle" font-family="trebuchet ms,verdana,arial,sans-serif" font-size="16" fill="#333333"><tspan x="530.91" dy="0.00">Source B RecordCache</tspan><tspan x="530.91" dy="24.00">LRU by record_id</tspan></text><polygon points="509.52,952.00 597.61,1040.08 509.52,1128.17 421.44,1040.08" fill="#ECECFF" stroke="#7B88A8" stroke-width="1" stroke-linejoin="round" stroke-linecap="round"/><text x="509.52" y="1044.08" text-anchor="middle" font-family="trebuchet ms,verdana,arial,sans-serif" font-size="16" fill="#333333"><tspan x="509.52" dy="0.00">B cache &gt; max?</tspan></text><rect x="415.06" y="1182.87" width="185.44" height="54.00" rx="3" ry="3" fill="#ECECFF" stroke="#7B88A8" stroke-width="1" stroke-linejoin="round" stroke-linecap="round"/><text x="507.78" y="1213.87" text-anchor="middle" font-family="trebuchet ms,verdana,arial,sans-serif" font-size="16" fill="#333333"><tspan x="507.78" dy="0.00">Evict oldest B</tspan></text><rect x="416.58" y="1282.17" width="167.52" height="54.00" rx="3" ry="3" fill="#ECECFF" stroke="#7B88A8" stroke-width="1" stroke-linejoin="round" stroke-linecap="round"/><text x="500.34" y="1313.17" text-anchor="middle" font-family="trebuchet ms,verdana,arial,sans-serif" font-size="16" fill="#333333"><tspan x="500.34" dy="0.00">Keep B cache</tspan></text><rect x="174.09" y="568.00" width="266.08" height="102.00" rx="3" ry="3" fill="#ECECFF" stroke="#7B88A8" stroke-width="1" stroke-linejoin="round" stroke-linecap="round"/><text x="307.13" y="599.00" text-anchor="middle" font-family="trebuchet ms,verdana,arial,sans-serif" font-size="16" fill="#333333"><tspan x="307.13" dy="0.00">Drain scheduler</tspan><tspan x="307.13" dy="24.00">round-robin or weighted</tspan><tspan x="307.13" dy="24.00">across sources</tspan></text><rect x="176.14" y="1386.17" width="284.00" height="102.00" rx="3" ry="3" fill="#ECECFF" stroke="#7B88A8" stroke-width="1" stroke-linejoin="round" stroke-linecap="round"/><text x="318.14" y="1417.17" text-anchor="middle" font-family="trebuchet ms,verdana,arial,sans-serif" font-size="16" fill="#333333"><tspan x="318.14" dy="0.00">all_records_snapshot</tspan><tspan x="318.14" dy="24.00">flatten Source A + Source</tspan><tspan x="318.14" dy="24.00">B caches</tspan></text><rect x="118.85" y="1538.17" width="400.48" height="54.00" rx="3" ry="3" fill="#ECECFF" stroke="#7B88A8" stroke-width="1" stroke-linejoin="round" stroke-linecap="round"/><text x="319.09" y="1569.17" text-anchor="middle" font-family="trebuchet ms,verdana,arial,sans-serif" font-size="16" fill="#333333"><tspan x="319.09" dy="0.00">TripletSampler.sync_records_from_cache</tspan></text><rect x="177.74" y="1642.17" width="284.00" height="54.00" rx="3" ry="3" fill="#ECECFF" stroke="#7B88A8" stroke-width="1" stroke-linejoin="round" stroke-linecap="round"/><text x="319.74" y="1673.17" text-anchor="middle" font-family="trebuchet ms,verdana,arial,sans-serif" font-size="16" fill="#333333"><tspan x="319.74" dy="0.00">Anchor + recipe selection</tspan></text><rect x="169.10" y="1746.17" width="301.92" height="54.00" rx="3" ry="3" fill="#ECECFF" stroke="#7B88A8" stroke-width="1" stroke-linejoin="round" stroke-linecap="round"/><text x="320.06" y="1777.17" text-anchor="middle" font-family="trebuchet ms,verdana,arial,sans-serif" font-size="16" fill="#333333"><tspan x="320.06" dy="0.00">Triplet / Pair / Text batch</tspan></text><rect x="528.21" y="8.00" width="266.08" height="78.00" rx="3" ry="3" fill="#ECECFF" stroke="#7B88A8" stroke-width="1" stroke-linejoin="round" stroke-linecap="round"/><text x="661.25" y="39.00" text-anchor="middle" font-family="trebuchet ms,verdana,arial,sans-serif" font-size="16" fill="#333333"><tspan x="661.25" dy="0.00">If batch is short after</tspan><tspan x="661.25" dy="24.00">in-batch dedupe</tspan></text><rect x="538.30" y="184.00" width="248.16" height="102.00" rx="3" ry="3" fill="#ECECFF" stroke="#7B88A8" stroke-width="1" stroke-linejoin="round" stroke-linecap="round"/><text x="662.38" y="215.00" text-anchor="middle" font-family="trebuchet ms,verdana,arial,sans-serif" font-size="16" fill="#333333"><tspan x="662.38" dy="0.00">pad_with_reuse clones</tspan><tspan x="662.38" dy="24.00">sampled items</tspan><tspan x="662.38" dy="24.00">to reach batch_size</tspan></text><g transform="translate(292.54 184.00) rotate(90.00)"><polygon points="0,0 -10.40,6.24 -10.40,-6.24" fill="#2F3B4D" stroke="#2F3B4D" stroke-width="2" stroke-linejoin="round" stroke-linecap="round"/></g><g transform="translate(160.38 984.00) rotate(90.00)"><polygon points="0,0 -10.40,6.24 -10.40,-6.24" fill="#2F3B4D" stroke="#2F3B4D" stroke-width="2" stroke-linejoin="round" stroke-linecap="round"/></g><g transform="translate(197.65 1182.87) rotate(90.00)"><polygon points="0,0 -10.40,6.24 -10.40,-6.24" fill="#2F3B4D" stroke="#2F3B4D" stroke-width="2" stroke-linejoin="round" stroke-linecap="round"/></g><g transform="translate(224.13 1282.17) rotate(180.00)"><polygon points="0,0 -10.40,6.24 -10.40,-6.24" fill="#2F3B4D" stroke="#2F3B4D" stroke-width="2" stroke-linejoin="round" stroke-linecap="round"/></g><g transform="translate(192.13 1282.17) rotate(90.00)"><polygon points="0,0 -10.40,6.24 -10.40,-6.24" fill="#2F3B4D" stroke="#2F3B4D" stroke-width="2" stroke-linejoin="round" stroke-linecap="round"/></g><g transform="translate(166.50 440.00) rotate(90.00)"><polygon points="0,0 -10.40,6.24 -10.40,-6.24" fill="#2F3B4D" stroke="#2F3B4D" stroke-width="2" stroke-linejoin="round" stroke-linecap="round"/></g><g transform="translate(186.22 720.00) rotate(0.00)"><polygon points="0,0 -10.40,6.24 -10.40,-6.24" fill="#2F3B4D" stroke="#2F3B4D" stroke-width="2" stroke-linejoin="round" stroke-linecap="round"/></g><g transform="translate(167.02 824.00) rotate(90.00)"><polygon points="0,0 -10.40,6.24 -10.40,-6.24" fill="#2F3B4D" stroke="#2F3B4D" stroke-width="2" stroke-linejoin="round" stroke-linecap="round"/></g><g transform="translate(557.52 1000.00) rotate(90.00)"><polygon points="0,0 -10.40,6.24 -10.40,-6.24" fill="#2F3B4D" stroke="#2F3B4D" stroke-width="2" stroke-linejoin="round" stroke-linecap="round"/></g><g transform="translate(507.78 1182.87) rotate(90.00)"><polygon points="0,0 -10.40,6.24 -10.40,-6.24" fill="#2F3B4D" stroke="#2F3B4D" stroke-width="2" stroke-linejoin="round" stroke-linecap="round"/></g><g transform="translate(484.34 1282.17) rotate(0.00)"><polygon points="0,0 -10.40,6.24 -10.40,-6.24" fill="#2F3B4D" stroke="#2F3B4D" stroke-width="2" stroke-linejoin="round" stroke-linecap="round"/></g><g transform="translate(532.34 1282.17) rotate(90.00)"><polygon points="0,0 -10.40,6.24 -10.40,-6.24" fill="#2F3B4D" stroke="#2F3B4D" stroke-width="2" stroke-linejoin="round" stroke-linecap="round"/></g><g transform="translate(501.59 440.00) rotate(90.00)"><polygon points="0,0 -10.40,6.24 -10.40,-6.24" fill="#2F3B4D" stroke="#2F3B4D" stroke-width="2" stroke-linejoin="round" stroke-linecap="round"/></g><g transform="translate(523.36 720.00) rotate(90.00)"><polygon points="0,0 -10.40,6.24 -10.40,-6.24" fill="#2F3B4D" stroke="#2F3B4D" stroke-width="2" stroke-linejoin="round" stroke-linecap="round"/></g><g transform="translate(530.91 824.00) rotate(90.00)"><polygon points="0,0 -10.40,6.24 -10.40,-6.24" fill="#2F3B4D" stroke="#2F3B4D" stroke-width="2" stroke-linejoin="round" stroke-linecap="round"/></g><g transform="translate(173.60 336.00) rotate(90.00)"><polygon points="0,0 -10.40,6.24 -10.40,-6.24" fill="#2F3B4D" stroke="#2F3B4D" stroke-width="2" stroke-linejoin="round" stroke-linecap="round"/></g><g transform="translate(401.89 347.00) rotate(180.00)"><polygon points="0,0 -10.40,6.24 -10.40,-6.24" fill="#2F3B4D" stroke="#2F3B4D" stroke-width="2" stroke-linejoin="round" stroke-linecap="round"/></g><g transform="translate(275.13 568.00) rotate(90.00)"><polygon points="0,0 -10.40,6.24 -10.40,-6.24" fill="#2F3B4D" stroke="#2F3B4D" stroke-width="2" stroke-linejoin="round" stroke-linecap="round"/></g><g transform="translate(440.17 587.00) rotate(180.00)"><polygon points="0,0 -10.40,6.24 -10.40,-6.24" fill="#2F3B4D" stroke="#2F3B4D" stroke-width="2" stroke-linejoin="round" stroke-linecap="round"/></g><g transform="translate(218.22 720.00) rotate(90.00)"><polygon points="0,0 -10.40,6.24 -10.40,-6.24" fill="#2F3B4D" stroke="#2F3B4D" stroke-width="2" stroke-linejoin="round" stroke-linecap="round"/></g><g transform="translate(439.60 731.00) rotate(0.00)"><polygon points="0,0 -10.40,6.24 -10.40,-6.24" fill="#2F3B4D" stroke="#2F3B4D" stroke-width="2" stroke-linejoin="round" stroke-linecap="round"/></g><g transform="translate(286.14 1386.17) rotate(90.00)"><polygon points="0,0 -10.40,6.24 -10.40,-6.24" fill="#2F3B4D" stroke="#2F3B4D" stroke-width="2" stroke-linejoin="round" stroke-linecap="round"/></g><g transform="translate(460.14 1421.17) rotate(180.00)"><polygon points="0,0 -10.40,6.24 -10.40,-6.24" fill="#2F3B4D" stroke="#2F3B4D" stroke-width="2" stroke-linejoin="round" stroke-linecap="round"/></g><g transform="translate(318.61 1538.17) rotate(90.00)"><polygon points="0,0 -10.40,6.24 -10.40,-6.24" fill="#2F3B4D" stroke="#2F3B4D" stroke-width="2" stroke-linejoin="round" stroke-linecap="round"/></g><g transform="translate(319.41 1642.17) rotate(90.00)"><polygon points="0,0 -10.40,6.24 -10.40,-6.24" fill="#2F3B4D" stroke="#2F3B4D" stroke-width="2" stroke-linejoin="round" stroke-linecap="round"/></g><g transform="translate(288.06 1746.17) rotate(90.00)"><polygon points="0,0 -10.40,6.24 -10.40,-6.24" fill="#2F3B4D" stroke="#2F3B4D" stroke-width="2" stroke-linejoin="round" stroke-linecap="round"/></g><g transform="translate(662.38 184.00) rotate(90.00)"><polygon points="0,0 -10.40,6.24 -10.40,-6.24" fill="#2F3B4D" stroke="#2F3B4D" stroke-width="2" stroke-linejoin="round" stroke-linecap="round"/></g><g transform="translate(368.06 1746.17) rotate(90.00)"><polygon points="0,0 -10.40,6.24 -10.40,-6.24" fill="#2F3B4D" stroke="#2F3B4D" stroke-width="2" stroke-linejoin="round" stroke-linecap="round"/></g></svg>